<svg width="24" height="24" viewBox="0 0 24 24" fill="none" xmlns="http://www.w3.org/2000/svg">
<path d="M11.9991 7.19347C9.33898 7.19347 7.1921 9.34035 7.1921 12.0005C7.1921 14.6607 9.33898 16.8075 11.9991 16.8075C14.6593 16.8075 16.8062 14.6607 16.8062 12.0005C16.8062 9.34035 14.6593 7.19347 11.9991 7.19347ZM11.9991 15.1247C10.2788 15.1247 8.87492 13.7208 8.87492 12.0005C8.87492 10.2802 10.2788 8.87628 11.9991 8.87628C13.7194 8.87628 15.1234 10.2802 15.1234 12.0005C15.1234 13.7208 13.7194 15.1247 11.9991 15.1247ZM17.003 5.87628C16.3819 5.87628 15.8804 6.37785 15.8804 6.99894C15.8804 7.62003 16.3819 8.1216 17.003 8.1216C17.6241 8.1216 18.1257 7.62238 18.1257 6.99894C18.1259 6.85146 18.097 6.70539 18.0406 6.5691C17.9843 6.43281 17.9016 6.30897 17.7973 6.20469C17.693 6.1004 17.5692 6.01772 17.4329 5.96136C17.2966 5.90501 17.1505 5.8761 17.003 5.87628ZM21.3694 12.0005C21.3694 10.7068 21.3812 9.42472 21.3085 8.13331C21.2359 6.63331 20.8937 5.30206 19.7968 4.20519C18.6976 3.10597 17.3687 2.76613 15.8687 2.69347C14.5749 2.62081 13.2929 2.63253 12.0015 2.63253C10.7077 2.63253 9.4257 2.62081 8.13429 2.69347C6.63429 2.76613 5.30304 3.10831 4.20617 4.20519C3.10695 5.30441 2.7671 6.63331 2.69445 8.13331C2.62179 9.42706 2.63351 10.7091 2.63351 12.0005C2.63351 13.2919 2.62179 14.5763 2.69445 15.8677C2.7671 17.3677 3.10929 18.6989 4.20617 19.7958C5.30538 20.895 6.63429 21.2349 8.13429 21.3075C9.42804 21.3802 10.7101 21.3685 12.0015 21.3685C13.2952 21.3685 14.5773 21.3802 15.8687 21.3075C17.3687 21.2349 18.6999 20.8927 19.7968 19.7958C20.896 18.6966 21.2359 17.3677 21.3085 15.8677C21.3835 14.5763 21.3694 13.2943 21.3694 12.0005ZM19.3069 17.5271C19.1359 17.9536 18.9296 18.2724 18.5991 18.6005C18.2687 18.931 17.9523 19.1372 17.5257 19.3083C16.2929 19.7982 13.3655 19.688 11.9991 19.688C10.6327 19.688 7.70304 19.7982 6.47023 19.3107C6.04367 19.1396 5.72492 18.9333 5.39679 18.6028C5.06632 18.2724 4.86007 17.956 4.68898 17.5294C4.20148 16.2943 4.31163 13.3669 4.31163 12.0005C4.31163 10.6341 4.20148 7.70441 4.68898 6.4716C4.86007 6.04503 5.06632 5.72628 5.39679 5.39816C5.72726 5.07003 6.04367 4.86144 6.47023 4.69035C7.70304 4.20285 10.6327 4.313 11.9991 4.313C13.3655 4.313 16.2952 4.20285 17.528 4.69035C17.9546 4.86144 18.2734 5.06769 18.6015 5.39816C18.9319 5.72863 19.1382 6.04503 19.3093 6.4716C19.7968 7.70441 19.6866 10.6341 19.6866 12.0005C19.6866 13.3669 19.7968 16.2943 19.3069 17.5271Z" fill="white"/>
</svg>
